# xmcd
#
# Track frame offsets: 
#        150
#        10520
#        20350
#        30305
#        43552
#        57405
#        70737
#
# Disc length: 1082 seconds
#
# Revision: 0
# Processed by: cddbd v1.5.2PL0 Copyright (c) Steve Scherf et al.
# Submitted via: ExactAudioCopyFreeDBPlugin 1.0
#
DISCID=48043807
DTITLE=Tim Carroll - Good Rock From Bad
DYEAR=1996
DGENRE=Country
TTITLE0=Open Flame
TTITLE1=She Does My Heart Good
TTITLE2=I Think Hank
TTITLE3=She Just Knows
TTITLE4=Punk Rockin' Honky Tonk Girl
TTITLE5=But Why?
TTITLE6=Too Rock 'N' Roll
EXTD=
EXTT0=
EXTT1=
EXTT2=
EXTT3=
EXTT4=
EXTT5=
EXTT6=
PLAYORDER=
